<?xml version="1.0" encoding="UTF-8"?>
<!-- Generated by Pixelmator Pro 3.6.18 -->
<svg width="395" height="437" viewBox="0 0 395 437" xmlns="http://www.w3.org/2000/svg">
    <linearGradient id="linearGradient1" x1="66.570895" y1="57.093799" x2="331.488286" y2="380.217841" gradientUnits="userSpaceOnUse">
        <stop offset="0" stop-color="#ff5e00" stop-opacity="1"/>
        <stop offset="1" stop-color="#ff8e00" stop-opacity="1"/>
    </linearGradient>
    <path id="logo" fill="url(#linearGradient1)" fill-rule="evenodd" stroke="none" d="M 197.179565 436.999878 C 196.162109 436.986328 188.413574 431.651245 179.960938 425.144409 C 171.508057 418.637573 159.271973 408.74646 152.769409 403.164307 C 146.266846 397.582275 135.855591 388.200684 129.633179 382.31665 C 123.410767 376.432495 113.221191 365.996216 106.989746 359.124756 C 100.758301 352.253418 91.289795 341.340088 85.948608 334.872925 C 80.607422 328.405762 72.558838 318.153809 68.062988 312.090942 C 63.567017 306.027954 56.874023 296.437378 53.189575 290.778687 C 49.505127 285.119873 43.458496 275.19873 39.752563 268.731567 C 36.046631 262.264282 29.974243 250.525269 26.258423 242.644775 C 22.542725 234.764038 17.545776 222.527954 15.154297 215.453247 C 12.762695 208.37854 9.192505 196.306641 7.220459 188.626953 C 5.248413 180.947144 2.82019 169.041748 1.824585 162.170288 C 0.828979 155.29895 0.007935 136.118042 0.000122 119.545898 C -0.008789 100.771484 0.846191 82.766846 2.268555 71.7771 C 3.524048 62.076416 6.417603 43.722046 8.698608 30.989868 C 11.320313 16.356567 13.491211 7.840332 14.599609 7.840332 C 15.564087 7.840332 21.567993 12.522949 27.941528 18.246094 C 34.315063 23.96936 41.989258 29.924805 44.995239 31.480591 C 48.001343 33.036499 54.615479 35.28894 59.693359 36.486206 C 64.77124 37.68335 73.749023 38.672607 79.644043 38.684692 C 85.53894 38.696655 95.288208 37.688843 101.308838 36.445313 C 107.32959 35.201538 117.057617 32.59729 122.926636 30.657715 C 128.795654 28.718262 137.896729 25.379028 143.151367 23.237305 C 148.405884 21.095825 157.665649 17.011841 163.728638 14.161865 C 169.791626 11.312134 179.712891 6.835938 185.775757 4.215088 C 196.799316 -0.550415 196.799316 -0.550415 207.822876 4.991333 C 213.885864 8.039307 224.137817 12.831543 230.60498 15.640503 C 237.072144 18.449707 249.639038 23.191895 258.531372 26.179077 C 267.423706 29.16626 279.557983 32.546509 285.496582 33.690674 C 291.435059 34.834961 301.687012 36.165405 308.278564 36.647095 C 316.567993 37.253052 323.584351 36.816162 331.034424 35.230103 C 336.958496 33.969116 345.428101 31.278931 349.855835 29.251831 C 354.335815 27.200806 362.082153 21.556396 367.322144 16.524536 C 372.684937 11.375 377.597412 7.812378 378.734131 8.248535 C 379.944458 8.712891 381.694458 14.423462 383.180542 22.758057 C 384.528442 30.317017 386.934448 45.099976 388.527222 55.609131 C 390.119995 66.118286 392.205688 84.803345 393.162109 97.131226 C 394.493286 114.289917 394.498901 124.646362 393.186401 141.297363 C 392.243286 153.260742 389.890869 170.672119 387.95874 179.989624 C 386.026489 189.307129 382.715698 202.084106 380.601196 208.383057 C 378.486816 214.681763 373.515869 227.098389 369.55481 235.975342 C 365.59375 244.852295 358.883179 258.169067 354.642334 265.567749 C 350.401611 272.966553 343.618042 283.980835 339.567749 290.043701 C 335.517456 296.106689 327.743774 307.020142 322.293091 314.295654 C 316.842285 321.571045 308.533691 332.242432 303.82959 338.009399 C 299.125366 343.776489 288.734253 355.546265 280.738037 364.164551 C 272.741821 372.782837 258.800537 386.583984 249.757324 394.83374 C 240.714111 403.083374 228.123901 414.123535 221.779175 419.367432 C 215.434448 424.611206 207.720215 430.729248 204.636475 432.963135 C 201.552612 435.196899 198.197021 437.01355 197.179565 436.999878 Z M 195.785767 384.111572 C 198.162109 384.111572 202.685791 382.189819 206.05603 379.748413 C 209.368774 377.348633 216.803711 370.89978 222.578247 365.417725 C 228.352661 359.935547 235.993408 352.744385 239.557617 349.437378 C 244.485107 344.865234 246.037964 342.351196 246.037964 338.945435 C 246.037964 335.058228 243.463867 332.155273 226.562988 316.980591 C 215.851807 307.363525 197.828247 291.664307 186.510742 282.093506 C 175.193115 272.522461 162.956909 262.18811 159.319214 259.12793 C 155.681396 256.067749 144.437378 246.633667 134.33252 238.162964 C 124.227539 229.692627 102.731567 211.450562 86.563721 197.625244 C 64.465332 178.728638 56.190063 172.484497 53.230469 172.473511 C 51.065186 172.465698 48.181519 173.571045 46.822388 174.930176 C 44.973022 176.779419 44.529297 179.090942 45.05896 184.116455 C 45.44812 187.809814 47.801758 196.321899 50.289185 203.031982 C 52.776611 209.74231 58.742798 223.052734 63.547241 232.611084 C 68.351685 242.169312 76.576904 256.521606 81.825439 264.504883 C 87.074097 272.488403 95.302246 283.980835 100.110352 290.043701 C 104.918335 296.106689 115.160156 308.012085 122.869751 316.500366 C 130.579346 324.988525 144.414795 339.231201 153.615112 348.150879 C 162.815308 357.070801 175.111816 368.810791 180.940674 374.23999 C 188.949097 381.699585 192.576416 384.111572 195.785767 384.111572 Z M 225.460693 214.459473 C 226.673218 214.177734 228.797729 213.480347 230.181519 212.90979 C 231.565552 212.339111 233.113403 210.562866 233.621338 208.962402 C 234.129272 207.361938 234.169067 204.611938 233.709717 202.851563 C 233.168579 200.777588 225.613892 194.868408 212.254883 186.06958 C 200.914185 178.60022 176.091553 162.237793 157.093628 149.70874 C 138.095581 137.179688 106.848145 116.530029 87.654907 103.820801 C 65.85022 89.382446 51.014404 80.498657 48.110474 80.141479 C 44.361084 79.680176 42.968506 80.324219 40.904175 83.474854 C 38.947266 86.461548 38.017212 92.726685 36.950928 110.1073 C 35.768677 129.376953 35.887939 133.332886 37.734619 136.111328 C 39.237427 138.372192 48.511597 142.767334 67.647583 150.287109 C 82.901733 156.281372 112.579346 168.285889 133.597534 176.963501 C 154.615845 185.640991 183.387329 197.74292 197.534302 203.856445 C 211.681152 209.969849 224.248047 214.741333 225.460693 214.459473 Z M 343.707275 182.060303 C 346.092163 181.605713 348.57019 180.41687 349.213745 179.418579 C 349.8573 178.420044 351.063354 175.288452 351.893921 172.458984 C 352.724487 169.629517 354.214966 160.369873 355.206299 151.881714 C 356.19751 143.393433 356.873779 124.261353 356.709106 109.365967 C 356.435669 84.641846 356.158325 82.032227 353.524658 79.398438 C 350.774902 76.648682 349.874634 76.5979 334.314087 78.316162 C 324.651733 79.383179 312.753662 79.707764 305.16272 79.11145 C 298.108521 78.557007 286.003296 76.903809 278.261963 75.437622 C 270.520752 73.971313 258.945923 71.006592 252.540283 68.849243 C 246.134644 66.691895 235.932983 62.927368 229.870117 60.483276 C 223.807129 58.039429 214.302612 54.065308 208.749023 51.651855 C 201.299438 48.414795 197.387817 47.501343 193.83252 48.168213 C 191.182129 48.665405 187.292969 50.425659 185.189941 52.079956 C 182.672241 54.060425 181.366333 56.515991 181.366333 59.269897 C 181.366333 62.440063 183.055908 64.89917 188.3479 69.432007 C 192.187866 72.720947 198.967285 78.262329 203.413452 81.745972 C 207.859741 85.229858 234.087891 104.915771 261.698242 125.492798 C 289.308838 146.06958 318.080322 167.401123 325.63501 172.896118 C 337.245239 181.34082 340.04187 182.759033 343.707275 182.060303 Z"/>
</svg>
