<?xml version="1.0" encoding="UTF-8"?>
<!-- Generated by Pixelmator Pro 3.6.17 -->
<svg width="268" height="296" viewBox="0 0 268 296" xmlns="http://www.w3.org/2000/svg">
    <path id="Shield" fill="#000000" fill-rule="evenodd" stroke="none" d="M 133.708817 296 C 133.018845 295.990753 127.76458 292.373016 122.032707 287.960663 C 116.300781 283.54834 108.003403 276.841125 103.593987 273.055878 C 99.18457 269.270599 92.124596 262.908936 87.905128 258.918884 C 83.685692 254.928848 76.7761 247.851898 72.550522 243.192337 C 68.324936 238.532776 61.904259 231.132446 58.282383 226.746994 C 54.66048 222.361542 49.202694 215.409668 46.153957 211.29834 C 43.105221 207.186996 38.566654 200.683594 36.068214 196.846375 C 33.569771 193.00914 29.469507 186.281494 26.956497 181.896057 C 24.443485 177.51059 20.325792 169.550232 17.806059 164.206421 C 15.286357 158.862488 11.897929 150.565109 10.276213 145.7677 C 8.654496 140.970291 6.233496 132.784241 4.896235 127.576569 C 3.558973 122.368896 1.912437 114.295761 1.237282 109.636185 C 0.562158 104.976624 0.005384 91.969925 6.1e-05 80.732254 C -0.005962 68.001236 0.573807 55.792175 1.538314 48.33989 C 2.389672 41.76178 4.35181 29.315582 5.89861 20.681824 C 7.676393 10.75885 9.14846 4.983978 9.900144 4.983978 C 10.554158 4.983978 14.625406 8.15921 18.947348 12.040131 C 23.269287 15.921143 28.473215 19.959595 30.511606 21.014557 C 32.55003 22.069672 37.035126 23.597046 40.478485 24.408936 C 43.921875 25.220673 50.009766 25.891541 54.007164 25.899689 C 58.004589 25.907867 64.615585 25.224457 68.698273 24.381195 C 72.780983 23.537811 79.377594 21.77182 83.357407 20.456604 C 87.337227 19.141388 93.508728 16.877075 97.071899 15.424744 C 100.635071 13.972534 106.914192 11.203186 111.025528 9.27063 C 115.136864 7.338226 121.86451 4.302887 125.975845 2.525604 C 133.451004 -0.705841 133.451004 -0.705841 140.926163 3.052063 C 145.037491 5.118896 151.989365 8.3685 156.374817 10.273285 C 160.760269 12.178223 169.281937 15.393951 175.31189 17.419586 C 181.341827 19.44519 189.570221 21.737396 193.597183 22.513245 C 197.624146 23.289246 204.576019 24.191376 209.045853 24.518066 C 214.666931 24.928925 219.424805 24.63266 224.476746 23.557159 C 228.493912 22.702087 234.237213 20.877808 237.239624 19.503235 C 240.277557 18.112457 245.530365 14.284851 249.083679 10.872742 C 252.720215 7.380798 256.051422 4.964996 256.822205 5.260773 C 257.642944 5.575653 258.82962 9.448029 259.837372 15.099792 C 260.751404 20.225555 262.382874 30.25 263.462952 37.376343 C 264.54306 44.50267 265.957367 57.173096 266.605896 65.532761 C 267.508606 77.168167 267.512421 84.190964 266.622375 95.482056 C 265.982849 103.594498 264.387695 115.401337 263.077454 121.719574 C 261.767242 128.037811 259.522156 136.702011 258.088318 140.973328 C 256.65448 145.244537 253.283722 153.664307 250.597641 159.683853 C 247.911621 165.7034 243.36113 174.733582 240.485428 179.750702 C 237.609726 184.767853 233.00972 192.236694 230.263229 196.348022 C 227.516693 200.459351 222.245331 207.859802 218.549179 212.793365 C 214.852966 217.726929 209.218857 224.963257 206.028961 228.87384 C 202.838989 232.784546 195.792709 240.765717 190.370422 246.609818 C 184.948135 252.453918 175.494446 261.812592 169.362183 267.406799 C 163.229904 273.001007 154.692429 280.487335 150.390015 284.043274 C 146.087601 287.599091 140.856506 291.747772 138.765366 293.262634 C 136.67424 294.777374 134.398773 296.009247 133.708817 296 Z M 132.763657 260.136047 C 134.375122 260.136047 137.442612 258.832855 139.727997 257.177368 C 141.974365 255.550079 147.016083 251.177032 150.931854 247.459656 C 154.847549 243.742157 160.028748 238.865784 162.445648 236.62323 C 165.787018 233.522812 166.840042 231.818024 166.840042 229.508575 C 166.840042 226.872681 165.094559 224.904114 153.633926 214.614105 C 146.37059 208.092682 134.148697 197.446899 126.47419 190.956879 C 118.799683 184.466736 110.502243 177.458893 108.035469 175.383759 C 105.568657 173.308624 97.944 166.911301 91.091774 161.167328 C 84.239548 155.423477 69.662987 143.053452 58.699425 133.67836 C 43.714375 120.864502 38.102894 116.63028 36.095985 116.622864 C 34.627628 116.617508 32.672211 117.367096 31.750593 118.288712 C 30.496552 119.542725 30.195671 121.110138 30.554768 124.518005 C 30.818691 127.022507 32.414677 132.794586 34.101452 137.344772 C 35.7882 141.895065 39.833866 150.92099 43.091808 157.402496 C 46.349751 163.884003 51.927345 173.616425 55.486439 179.029968 C 59.045563 184.443604 64.625137 192.236694 67.885513 196.348022 C 71.145882 200.459351 78.090881 208.532501 83.31884 214.288391 C 88.546799 220.044296 97.928642 229.702393 104.167427 235.750885 C 110.406189 241.799515 118.744568 249.760483 122.697128 253.442093 C 128.127686 258.500488 130.587418 260.136047 132.763657 260.136047 Z M 152.886414 145.093796 C 153.708694 144.902771 155.149277 144.429855 156.087692 144.042969 C 157.026154 143.655945 158.075775 142.451447 158.420273 141.366196 C 158.764709 140.28093 158.791656 138.416153 158.480194 137.222366 C 158.113251 135.816025 152.990311 131.80896 143.931488 125.842468 C 136.241287 120.77739 119.40892 109.681931 106.52626 101.185883 C 93.64357 92.689819 72.454491 78.687164 59.439396 70.068954 C 44.653515 60.278244 34.593258 54.254074 32.624092 54.011841 C 30.081579 53.699036 29.137268 54.135818 27.737379 56.272278 C 26.410398 58.297531 25.779774 62.545975 25.056683 74.331894 C 24.255026 87.398819 24.335873 90.081299 25.58815 91.965424 C 26.607162 93.498535 32.896076 96.478867 45.872334 101.578125 C 56.216282 105.642868 76.340805 113.783173 90.59343 119.667557 C 104.846054 125.551804 124.356224 133.758179 133.949341 137.903824 C 143.542465 142.049347 152.064133 145.284927 152.886414 145.093796 Z M 233.070251 123.123718 C 234.6875 122.815414 236.367828 122.009262 236.804245 121.332306 C 237.240662 120.655228 238.058502 118.531677 238.621689 116.613007 C 239.184875 114.694336 240.195618 108.415268 240.867828 102.659378 C 241.539963 96.903488 241.998596 83.929871 241.886902 73.829163 C 241.701477 57.063583 241.513443 55.293961 239.727509 53.508026 C 237.862854 51.643372 237.252396 51.608932 226.700668 52.774139 C 220.14859 53.497681 212.080444 53.717773 206.932938 53.313354 C 202.14946 52.937408 193.940765 51.816376 188.691376 50.822128 C 183.441971 49.827866 175.593048 47.817459 171.249344 46.354553 C 166.905624 44.891632 159.987808 42.338837 155.87648 40.681503 C 151.765137 39.024292 145.320068 36.329407 141.554138 34.692871 C 136.502563 32.497772 133.850067 31.878357 131.439194 32.330597 C 129.641937 32.667725 127.004654 33.861389 125.578606 34.983154 C 123.87133 36.326111 122.985779 37.991241 122.985779 39.858673 C 122.985779 42.008392 124.131447 43.675949 127.720047 46.749725 C 130.323883 48.97998 134.921097 52.73764 137.936096 55.099899 C 140.951096 57.462296 158.736603 70.811478 177.459412 84.764862 C 196.182281 98.718124 215.692459 113.183243 220.815323 116.909378 C 228.688339 122.635834 230.584732 123.597488 233.070251 123.123718 Z"/>
</svg>
